<svg width="964" height="383" viewBox="0 0 964 383" fill="none" xmlns="http://www.w3.org/2000/svg">
<g clip-path="url(#clip0_0_493)">
<path d="M0 4C0 1.79086 1.79086 0 4 0H960C962.209 0 964 1.79086 964 4V379C964 381.209 962.209 383 960 383H4C1.79086 383 0 381.209 0 379V4Z" fill="#BFAD9B"/>
<g filter="url(#filter0_f_0_493)">
<circle cx="980" cy="584" r="574" fill="url(#paint0_linear_0_493)" fill-opacity="0.92"/>
</g>
</g>
<defs>
<filter id="filter0_f_0_493" x="127.5" y="-268.5" width="1705" height="1705" filterUnits="userSpaceOnUse" color-interpolation-filters="sRGB">
<feFlood flood-opacity="0" result="BackgroundImageFix"/>
<feBlend mode="normal" in="SourceGraphic" in2="BackgroundImageFix" result="shape"/>
<feGaussianBlur stdDeviation="139.25" result="effect1_foregroundBlur_0_493"/>
</filter>
<linearGradient id="paint0_linear_0_493" x1="1278.62" y1="783.808" x2="568.377" y2="-331.809" gradientUnits="userSpaceOnUse">
<stop offset="0.52688" stop-color="#F2F1F0"/>
<stop offset="1" stop-color="#AA927A"/>
</linearGradient>
<clipPath id="clip0_0_493">
<path d="M0 4C0 1.79086 1.79086 0 4 0H960C962.209 0 964 1.79086 964 4V379C964 381.209 962.209 383 960 383H4C1.79086 383 0 381.209 0 379V4Z" fill="white"/>
</clipPath>
</defs>
</svg>